# xmcd
#
# Track frame offsets:
#	150
#	16520
#	37285
#	49280
#	66072
#	94512
#	118787
#	136110
#	172197
#	193862
#	207945
#	233945
#
# Disc length: 3603
#
# Revision: 2
# Processed by: cddbd v1.5.1PL0 Copyright (c) Steve Scherf et al.
# Submitted via: CDex 1.40Release
# Normalized: r0:TDELIM( - ),TSWAP
#
DISCID=a90e110c
DTITLE=It`s Time To Change - Amnesia(2)
DYEAR=1900
DGENRE=Blues
TTITLE0=Y Traxxl - Mistery Land
TTITLE1=Ultra Nate - Free
TTITLE2=Sneaker Pimps - Spin Spin Sugar
TTITLE3=Todd Terry - Somthing Going On
TTITLE4=Blackout - Gotta Have Hope
TTITLE5=Olive - You're Not Alone
TTITLE6=Mighty Dub Katz - Magic Carpet Ride
TTITLE7=Nalin and Kane - Beachball
TTITLE8=F.Y.C. - Johhny Come Home
TTITLE9=Crydamoure - Peace and Love
TTITLE10=Disco Nation - Rock Da Jam
TTITLE11=Energy 52 - Cafe del Mar
EXTD=ID3G: 0
EXTT0=
EXTT1=
EXTT2=
EXTT3=
EXTT4=
EXTT5=
EXTT6=
EXTT7=
EXTT8=
EXTT9=
EXTT10=
EXTT11=
PLAYORDER=
